<svg xmlns="http://www.w3.org/2000/svg" version="1.1" xmlns:xlink="http://www.w3.org/1999/xlink" xmlns:svgjs="http://svgjs.dev/svgjs" width="1500" height="1500" viewBox="0 0 1500 1500"><rect width="1500" height="1500" fill="#ffffff"></rect><g transform="matrix(0.6666666666666666,0,0,0.6666666666666666,249.39393939393943,577.628441708715)"><svg viewBox="0 0 396 137" data-background-color="#ffffff" preserveAspectRatio="xMidYMid meet" height="518" width="1500" xmlns="http://www.w3.org/2000/svg" xmlns:xlink="http://www.w3.org/1999/xlink"><g id="tight-bounds" transform="matrix(1,0,0,1,0.2400000000000091,-0.11707484776238175)"><svg viewBox="0 0 395.52 137.2339511213444" height="137.2339511213444" width="395.52"><g><svg viewBox="0 0 663.1467718633576 230.09266706152238" height="137.2339511213444" width="395.52"><g transform="matrix(1,0,0,1,267.6267718633576,83.24801027737225)"><svg viewBox="0 0 395.52 63.59664650677789" height="63.59664650677789" width="395.52"><g id="textblocktransform"><svg viewBox="0 0 395.52 63.59664650677789" height="63.59664650677789" width="395.52" id="textblock"><g><svg viewBox="0 0 395.52 63.59664650677789" height="63.59664650677789" width="395.52"><g transform="matrix(1,0,0,1,0,0)"><svg width="395.52" viewBox="4.4 -37.9 239.73 38.55" height="63.59664650677789" data-palette-color="#010c80"><path d="M8.6-30.25L8.6-3.85 15.35-3.85Q18.1-3.85 20.53-4.55 22.95-5.25 24.78-6.83 26.6-8.4 27.65-10.95 28.7-13.5 28.7-17.15L28.7-17.15Q28.7-20.55 27.75-23.03 26.8-25.5 25.08-27.1 23.35-28.7 20.88-29.48 18.4-30.25 15.35-30.25L15.35-30.25 8.6-30.25ZM4.4 0L4.4-34.1 15.35-34.1Q19.4-34.1 22.68-33.1 25.95-32.1 28.3-30 30.65-27.9 31.93-24.7 33.2-21.5 33.2-17.15L33.2-17.15Q33.2-12.75 31.8-9.53 30.4-6.3 28-4.17 25.6-2.05 22.35-1.03 19.1 0 15.35 0L15.35 0 4.4 0ZM57.2-3.95L57.95-0.6Q56.8-0.25 55.57 0 54.35 0.25 52.87 0.45 51.4 0.65 49.8 0.65L49.8 0.65Q47.3 0.65 45.15-0.05 43-0.75 41.4-2.3 39.8-3.85 38.87-6.33 37.95-8.8 37.95-12.4L37.95-12.4Q37.95-15.65 38.85-18.13 39.75-20.6 41.32-22.28 42.9-23.95 45.02-24.8 47.15-25.65 49.65-25.65L49.65-25.65Q52.1-25.65 53.9-24.7 55.7-23.75 56.87-22.13 58.05-20.5 58.62-18.32 59.2-16.15 59.2-13.75L59.2-13.75 58.45-11.55 42.3-11.55Q42.3-10 42.7-8.45 43.1-6.9 44.07-5.65 45.05-4.4 46.62-3.63 48.2-2.85 50.55-2.85L50.55-2.85Q52.05-2.85 53.3-3.03 54.55-3.2 55.47-3.43 56.4-3.65 57.2-3.95L57.2-3.95ZM42.45-14.75L55.05-14.75Q55.05-15.1 54.9-16.3 54.75-17.5 54.2-18.8 53.65-20.1 52.5-21.13 51.35-22.15 49.45-22.15L49.45-22.15Q47.35-22.15 46-21.28 44.65-20.4 43.85-19.2 43.05-18 42.75-16.75 42.45-15.5 42.45-14.75L42.45-14.75ZM64.7 0L64.7-20.6Q64.7-22.3 64.39-24.7L64.39-24.7 68.14-25.2 68.7-22.05Q70.05-23.05 71.34-23.8 72.65-24.55 74.15-25.1 75.65-25.65 77.2-25.65L77.2-25.65Q79.7-25.65 81.15-24.78 82.59-23.9 83.3-21.8L83.3-21.8Q85.34-23.25 87.57-24.45 89.8-25.65 92.2-25.65L92.2-25.65Q94.05-25.65 95.34-25.18 96.65-24.7 97.44-23.6 98.25-22.5 98.59-20.7 98.94-18.9 98.94-16.2L98.94-16.2 98.94 0 94.94 0 94.94-15.75Q94.94-17.25 94.9-18.43 94.84-19.6 94.55-20.43 94.25-21.25 93.57-21.7 92.9-22.15 91.65-22.15L91.65-22.15Q90.5-22.15 89.47-21.83 88.45-21.5 87.34-20.9 86.25-20.3 83.95-18.45L83.95-18.45 83.95 0 79.95 0 79.95-15.75Q79.95-17.25 79.9-18.43 79.84-19.6 79.55-20.43 79.25-21.25 78.57-21.7 77.9-22.15 76.65-22.15L76.65-22.15Q75.34-22.15 73.95-21.6 72.55-21.05 71.3-20.3 70.05-19.55 68.7-18.55L68.7-18.55 68.7 0 64.7 0ZM108.84-12.45L108.84-12.45Q108.84-7.6 111.02-5.23 113.19-2.85 116.89-2.85L116.89-2.85Q120.54-2.85 122.59-5.2 124.64-7.55 124.64-12.25L124.64-12.25Q124.64-17.25 122.47-19.7 120.29-22.15 116.54-22.15L116.54-22.15Q112.79-22.15 110.82-19.73 108.84-17.3 108.84-12.45ZM104.59-12.5L104.59-12.5Q104.59-16.3 105.79-18.82 106.99-21.35 108.84-22.88 110.69-24.4 112.82-25.03 114.94-25.65 116.84-25.65L116.84-25.65Q118.64-25.65 120.77-25.08 122.89-24.5 124.69-23.03 126.49-21.55 127.69-19.07 128.89-16.6 128.89-12.8L128.89-12.8Q128.89-8.85 127.67-6.25 126.44-3.65 124.59-2.13 122.74-0.6 120.59 0.03 118.44 0.65 116.59 0.65L116.59 0.65Q114.69 0.65 112.59 0.05 110.49-0.55 108.72-2.02 106.94-3.5 105.77-6.05 104.59-8.6 104.59-12.5ZM135.09 0L135.09-34.1 139.29-34.1 139.29-19.35 156.54-19.35 156.54-34.1 160.74-34.1 160.74 0 156.54 0 156.54-15.6 139.29-15.6 139.29 0 135.09 0ZM171.19-12.45L171.19-12.45Q171.19-7.6 173.36-5.23 175.54-2.85 179.24-2.85L179.24-2.85Q182.89-2.85 184.94-5.2 186.99-7.55 186.99-12.25L186.99-12.25Q186.99-17.25 184.81-19.7 182.64-22.15 178.89-22.15L178.89-22.15Q175.14-22.15 173.16-19.73 171.19-17.3 171.19-12.45ZM166.94-12.5L166.94-12.5Q166.94-16.3 168.14-18.82 169.34-21.35 171.19-22.88 173.04-24.4 175.16-25.03 177.29-25.65 179.19-25.65L179.19-25.65Q180.99-25.65 183.11-25.08 185.24-24.5 187.04-23.03 188.84-21.55 190.04-19.07 191.24-16.6 191.24-12.8L191.24-12.8Q191.24-8.85 190.01-6.25 188.79-3.65 186.94-2.13 185.09-0.6 182.94 0.03 180.79 0.65 178.94 0.65L178.94 0.65Q177.04 0.65 174.94 0.05 172.84-0.55 171.06-2.02 169.29-3.5 168.11-6.05 166.94-8.6 166.94-12.5ZM198.69-32.15L202.69-32.65 202.69-25.15 209.94-25.15 209.94-21.9 202.69-21.9 202.69-8.55Q202.69-6.9 202.76-5.8 202.84-4.7 203.09-4.05 203.34-3.4 203.79-3.13 204.24-2.85 204.94-2.85L204.94-2.85Q206.84-2.9 209.34-4.25L209.34-4.25 210.54-1.2Q208.89-0.1 207.46 0.28 206.04 0.65 204.64 0.65L204.64 0.65Q201.34 0.65 200.01-1.23 198.69-3.1 198.69-7.45L198.69-7.45 198.69-21.9 194.09-21.9 194.09-25.15 198.69-25.15 198.69-32.15ZM232.68-3.95L233.43-0.6Q232.28-0.25 231.06 0 229.83 0.25 228.36 0.45 226.88 0.65 225.28 0.65L225.28 0.65Q222.78 0.65 220.63-0.05 218.48-0.75 216.88-2.3 215.28-3.85 214.36-6.33 213.43-8.8 213.43-12.4L213.43-12.4Q213.43-15.65 214.33-18.13 215.23-20.6 216.81-22.28 218.38-23.95 220.51-24.8 222.63-25.65 225.13-25.65L225.13-25.65Q227.58-25.65 229.38-24.7 231.18-23.75 232.36-22.13 233.53-20.5 234.11-18.32 234.68-16.15 234.68-13.75L234.68-13.75 233.93-11.55 217.78-11.55Q217.78-10 218.18-8.45 218.58-6.9 219.56-5.65 220.53-4.4 222.11-3.63 223.68-2.85 226.03-2.85L226.03-2.85Q227.53-2.85 228.78-3.03 230.03-3.2 230.96-3.43 231.88-3.65 232.68-3.95L232.68-3.95ZM217.93-14.75L230.53-14.75Q230.53-15.1 230.38-16.3 230.23-17.5 229.68-18.8 229.13-20.1 227.98-21.13 226.83-22.15 224.93-22.15L224.93-22.15Q222.83-22.15 221.48-21.28 220.13-20.4 219.33-19.2 218.53-18 218.23-16.75 217.93-15.5 217.93-14.75L217.93-14.75ZM240.13 0L240.13-37.45 244.13-37.9 244.13 0 240.13 0Z" opacity="1" transform="matrix(1,0,0,1,0,0)" fill="#010c80" class="wordmark-text-0" data-fill-palette-color="primary" id="text-0"></path></svg></g></svg></g></svg></g></svg></g><g><svg viewBox="0 0 230.09266706152238 230.09266706152238" height="230.09266706152238" width="230.09266706152238"><g><svg viewBox="0 0 230.09266706152238 230.09266706152238" height="230.09266706152238" width="230.09266706152238"><g transform="matrix(1,0,0,1,70.17164853557334,60.81297180392752)"><svg viewBox="0 0 89.7493699903757 108.46672345366734" height="108.46672345366734" width="89.7493699903757"><g><svg xmlns="http://www.w3.org/2000/svg" xmlns:xlink="http://www.w3.org/1999/xlink" version="1.1" x="0" y="0" viewBox="13.723999999999993 6.8100000000000005 72.62000000000002 87.76500000000001" enable-background="new 0 0 100 100" xml:space="preserve" height="108.46672345366734" width="89.7493699903757" class="icon-cg-0" data-fill-palette-color="accent" id="cg-0"><g fill="#0023ff" data-fill-palette-color="accent"><path d="M48.501 9.861c0-0.851 1.539-3.051 1.539-3.051s1.538 2.199 1.538 3.051c0 0.848-0.689 1.537-1.538 1.537C49.187 11.397 48.501 10.708 48.501 9.861z" fill="#0023ff" data-fill-palette-color="accent"></path><path d="M51.94 13.699c0-1.029-0.849-1.867-1.9-1.867-1.053 0-1.91 0.838-1.91 1.867 0 0.025 0.015 0.045 0.015 0.07h-0.015v19.111h3.811V13.769h-0.014C51.928 13.744 51.94 13.724 51.94 13.699z" fill="#0023ff" data-fill-palette-color="accent"></path></g><g fill="#0023ff" data-fill-palette-color="accent"><path d="M81.25 14.879c0-0.852 1.539-3.051 1.539-3.051s1.538 2.199 1.538 3.051c0 0.848-0.689 1.536-1.538 1.536C81.936 16.415 81.25 15.726 81.25 14.879z" fill="#0023ff" data-fill-palette-color="accent"></path><path d="M84.689 18.717c0-1.029-0.849-1.867-1.9-1.867-1.053 0-1.91 0.838-1.91 1.867 0 0.025 0.015 0.045 0.015 0.07h-0.015v14.092h3.811V18.787h-0.014C84.677 18.762 84.689 18.742 84.689 18.717z" fill="#0023ff" data-fill-palette-color="accent"></path></g><g fill="#0023ff" data-fill-palette-color="accent"><path d="M73.356 14.879c0-0.852 1.538-3.051 1.538-3.051s1.538 2.199 1.538 3.051c0 0.848-0.688 1.536-1.538 1.536C74.041 16.415 73.356 15.726 73.356 14.879z" fill="#0023ff" data-fill-palette-color="accent"></path><path d="M76.794 18.717c0-1.029-0.848-1.867-1.9-1.867s-1.912 0.838-1.912 1.867c0 0.025 0.016 0.045 0.016 0.07h-0.016v14.092h3.812V18.787h-0.013C76.782 18.762 76.794 18.742 76.794 18.717z" fill="#0023ff" data-fill-palette-color="accent"></path></g><g fill="#0023ff" data-fill-palette-color="accent"><path d="M65.46 14.879c0-0.852 1.54-3.051 1.54-3.051s1.538 2.199 1.538 3.051c0 0.848-0.689 1.536-1.538 1.536C66.147 16.415 65.46 15.726 65.46 14.879z" fill="#0023ff" data-fill-palette-color="accent"></path><path d="M68.9 18.717c0-1.029-0.849-1.867-1.9-1.867-1.053 0-1.91 0.838-1.91 1.867 0 0.025 0.015 0.045 0.015 0.07H65.09v14.092H68.9V18.787h-0.014C68.888 18.762 68.9 18.742 68.9 18.717z" fill="#0023ff" data-fill-palette-color="accent"></path></g><g fill="#0023ff" data-fill-palette-color="accent"><path d="M57.138 14.879c0-0.852 1.54-3.051 1.54-3.051s1.538 2.199 1.538 3.051c0 0.848-0.689 1.536-1.538 1.536C57.826 16.415 57.138 15.726 57.138 14.879z" fill="#0023ff" data-fill-palette-color="accent"></path><path d="M60.579 18.717c0-1.029-0.849-1.867-1.9-1.867-1.053 0-1.91 0.838-1.91 1.867 0 0.025 0.015 0.045 0.015 0.07h-0.015v14.092h3.811V18.787h-0.014C60.567 18.762 60.579 18.742 60.579 18.717z" fill="#0023ff" data-fill-palette-color="accent"></path></g><g fill="#0023ff" data-fill-palette-color="accent"><path d="M39.643 14.879c0-0.852 1.539-3.051 1.539-3.051s1.538 2.199 1.538 3.051c0 0.848-0.688 1.536-1.538 1.536C40.329 16.415 39.643 15.726 39.643 14.879z" fill="#0023ff" data-fill-palette-color="accent"></path><path d="M43.082 18.717c0-1.029-0.848-1.867-1.9-1.867s-1.91 0.838-1.91 1.867c0 0.025 0.015 0.045 0.015 0.07h-0.015v14.092h3.811V18.787H43.07C43.07 18.762 43.082 18.742 43.082 18.717z" fill="#0023ff" data-fill-palette-color="accent"></path></g><g fill="#0023ff" data-fill-palette-color="accent"><path d="M31.865 14.879c0-0.852 1.539-3.051 1.539-3.051s1.538 2.199 1.538 3.051c0 0.848-0.689 1.536-1.538 1.536C32.552 16.415 31.865 15.726 31.865 14.879z" fill="#0023ff" data-fill-palette-color="accent"></path><path d="M35.305 18.717c0-1.029-0.849-1.867-1.9-1.867-1.053 0-1.91 0.838-1.91 1.867 0 0.025 0.015 0.045 0.015 0.07h-0.015v14.092h3.811V18.787h-0.014C35.292 18.762 35.305 18.742 35.305 18.717z" fill="#0023ff" data-fill-palette-color="accent"></path></g><g fill="#0023ff" data-fill-palette-color="accent"><path d="M23.581 14.879c0-0.852 1.539-3.051 1.539-3.051s1.538 2.199 1.538 3.051c0 0.848-0.689 1.536-1.538 1.536C24.268 16.415 23.581 15.726 23.581 14.879z" fill="#0023ff" data-fill-palette-color="accent"></path><path d="M27.021 18.717c0-1.029-0.849-1.867-1.9-1.867-1.053 0-1.91 0.838-1.91 1.867 0 0.025 0.015 0.045 0.015 0.07H23.21v14.092h3.811V18.787h-0.014C27.008 18.762 27.021 18.742 27.021 18.717z" fill="#0023ff" data-fill-palette-color="accent"></path></g><g fill="#0023ff" data-fill-palette-color="accent"><path d="M15.58 14.879c0-0.852 1.539-3.051 1.539-3.051s1.538 2.199 1.538 3.051c0 0.848-0.689 1.536-1.538 1.536C16.267 16.415 15.58 15.726 15.58 14.879z" fill="#0023ff" data-fill-palette-color="accent"></path><path d="M19.02 18.717c0-1.029-0.849-1.867-1.9-1.867-1.053 0-1.91 0.838-1.91 1.867 0 0.025 0.015 0.045 0.015 0.07h-0.015v14.092h3.811V18.787h-0.014C19.007 18.762 19.02 18.742 19.02 18.717z" fill="#0023ff" data-fill-palette-color="accent"></path></g><path d="M79.383 33.604c0 0.947 0.526 1.48 1.168 1.787v0.966h0.016c0 0.028-0.016 0.054-0.016 0.082 0 0.437 0.159 0.821 0.378 1.167-0.008 16.388-12.841 29.795-28.981 30.794v-4.155C65.79 63.255 76.759 51.71 76.773 37.622c0.224-0.35 0.386-0.739 0.386-1.182 0-0.029-0.016-0.055-0.019-0.082h0.019v-0.966c0.64-0.308 1.164-0.841 1.164-1.787h-6.96c0 0.947 0.525 1.48 1.165 1.787v0.966h0.016c-0.001 0.028-0.016 0.054-0.016 0.082 0 0.453 0.17 0.85 0.403 1.205-0.026 11.96-9.266 21.781-20.984 22.76v-4.197c9.405-0.963 16.769-8.922 16.792-18.571 0.229-0.354 0.396-0.748 0.396-1.198 0-0.029-0.015-0.055-0.015-0.082h0.015v-0.966c0.64-0.308 1.165-0.841 1.165-1.787h-6.961c0 0.947 0.525 1.48 1.167 1.787v0.966h0.016c0 0.028-0.016 0.054-0.016 0.082 0 0.447 0.166 0.839 0.393 1.19-0.019 7.531-5.667 13.752-12.951 14.696v-4.234c4.963-0.908 8.743-5.233 8.765-10.45 0.233-0.355 0.401-0.75 0.401-1.202 0-0.029-0.016-0.055-0.018-0.082h0.018v-0.966c0.64-0.308 1.164-0.841 1.164-1.787h-6.96c0 0.947 0.525 1.48 1.165 1.787v0.966h0.015c0 0.028-0.015 0.054-0.015 0.082 0 0.445 0.165 0.838 0.391 1.188-0.016 3.092-2.099 5.676-4.927 6.51v-6.502c0.229-0.352 0.395-0.746 0.395-1.195 0-0.029-0.015-0.055-0.015-0.082h0.015v-0.966c0.64-0.308 1.165-0.841 1.165-1.787h-6.961c0 0.947 0.525 1.48 1.167 1.787v0.966h0.016c0 0.028-0.016 0.054-0.016 0.082 0 0.448 0.166 0.84 0.394 1.192v6.506c-2.838-0.836-4.93-3.438-4.93-6.544h-0.039c0.213-0.344 0.367-0.724 0.367-1.154 0-0.029-0.015-0.055-0.016-0.082h0.016v-0.966c0.64-0.308 1.165-0.841 1.165-1.787H37.71c0 0.947 0.525 1.48 1.165 1.787v0.966h0.018c-0.001 0.028-0.018 0.054-0.018 0.082 0 0.499 0.199 0.938 0.478 1.313 0.077 5.166 3.827 9.439 8.754 10.339v4.234c-7.294-0.945-12.952-7.185-12.952-14.733h-0.01c0.211-0.344 0.366-0.724 0.366-1.154 0-0.029-0.016-0.055-0.016-0.082h0.016v-0.966c0.64-0.308 1.164-0.841 1.164-1.787h-6.96c0 0.947 0.525 1.48 1.167 1.787v0.966h0.015c0 0.028-0.015 0.054-0.015 0.082 0 0.475 0.183 0.893 0.439 1.258 0.052 9.623 7.401 17.551 16.786 18.511v4.197c-11.721-0.979-20.965-10.807-20.985-22.773 0.229-0.353 0.394-0.745 0.394-1.193 0-0.029-0.015-0.055-0.016-0.082h0.016v-0.966c0.64-0.308 1.165-0.841 1.165-1.787H21.72c0 0.947 0.525 1.48 1.165 1.787v0.966h0.018c-0.001 0.028-0.018 0.054-0.018 0.082 0 0.449 0.166 0.843 0.396 1.195 0.021 14.082 10.987 25.621 24.825 26.611v4.155c-16.13-0.999-28.96-14.394-28.98-30.769 0.228-0.351 0.394-0.744 0.394-1.192 0-0.029-0.016-0.055-0.016-0.082h0.016v-0.966c0.64-0.308 1.164-0.841 1.164-1.787h-6.96c0 0.947 0.525 1.48 1.166 1.787v0.966h0.015c0 0.028-0.015 0.054-0.015 0.082 0 0.449 0.166 0.843 0.396 1.196 0.021 18.491 14.571 33.6 32.819 34.605v4.78c-1.255 0.685-2.118 1.999-2.118 3.527 0 1.534 0.863 2.851 2.118 3.537v3.709c-6.452-0.05-11.394-0.025-11.394 6.782h26.627c0-6.809-4.943-6.832-11.392-6.782v-3.703c1.255-0.685 2.117-2.005 2.117-3.543 0-1.531-0.862-2.848-2.117-3.532v-4.774c18.238-1.005 32.782-16.099 32.818-34.578 0.241-0.358 0.415-0.763 0.415-1.223 0-0.029-0.015-0.055-0.015-0.082h0.015v-0.966c0.64-0.308 1.165-0.841 1.165-1.787H79.383z" fill="#0023ff" data-fill-palette-color="accent"></path></svg></g></svg></g><g id="text-0"><path d="M5.1 82.26l13.422 4.63 1.186-3.438c0.321-0.929 0.503-1.847 0.549-2.751 0.051-0.903-0.084-1.754-0.405-2.554-0.319-0.806-0.851-1.537-1.594-2.194-0.745-0.651-1.736-1.189-2.973-1.616v0c-1.149-0.396-2.2-0.58-3.152-0.55-0.952 0.03-1.799 0.244-2.54 0.642-0.744 0.404-1.391 0.978-1.944 1.722-0.554 0.75-1.009 1.641-1.363 2.671v0zM19.747 89.695l-17.341-5.982 1.92-5.567c0.472-1.369 1.07-2.551 1.792-3.545 0.723-0.995 1.579-1.767 2.571-2.318 0.985-0.553 2.094-0.855 3.327-0.907 1.23-0.061 2.582 0.163 4.058 0.672v0c1.495 0.516 2.707 1.197 3.637 2.045 0.928 0.854 1.612 1.814 2.053 2.88 0.436 1.057 0.64 2.199 0.61 3.425-0.034 1.218-0.269 2.461-0.707 3.73v0z" fill="#0023ff" data-fill-palette-color="accent"></path><path d="M38.881 50.04l1.666 0.799c-0.155 0.402-0.333 0.802-0.536 1.2-0.202 0.398-0.439 0.829-0.708 1.293-0.266 0.458-0.577 0.915-0.934 1.37v0c-0.553 0.706-1.166 1.285-1.84 1.736-0.669 0.455-1.399 0.736-2.19 0.841-0.792 0.106-1.637 0.017-2.538-0.266-0.906-0.287-1.866-0.828-2.88-1.623v0c-0.92-0.721-1.63-1.479-2.129-2.275-0.5-0.805-0.811-1.614-0.934-2.427-0.128-0.817-0.076-1.621 0.154-2.411 0.226-0.785 0.616-1.53 1.168-2.236v0c0.545-0.696 1.152-1.191 1.821-1.485 0.664-0.298 1.355-0.432 2.074-0.401 0.717 0.022 1.448 0.193 2.192 0.514 0.739 0.317 1.448 0.742 2.128 1.274v0l0.681 1.053-5.351 6.833c0.434 0.34 0.914 0.627 1.439 0.861 0.529 0.229 1.076 0.345 1.64 0.347 0.567-0.003 1.135-0.14 1.703-0.413 0.568-0.273 1.112-0.741 1.631-1.405v0c0.332-0.424 0.611-0.829 0.839-1.216 0.226-0.397 0.41-0.75 0.552-1.061 0.142-0.311 0.259-0.611 0.352-0.902zM29.417 52.703l4.178-5.334c-0.099-0.078-0.335-0.229-0.708-0.453-0.373-0.224-0.804-0.401-1.293-0.532-0.489-0.13-1.004-0.145-1.545-0.046-0.547 0.095-1.029 0.409-1.447 0.943v0c-0.467 0.596-0.724 1.183-0.773 1.761-0.053 0.574 0.002 1.107 0.166 1.598 0.159 0.487 0.383 0.912 0.673 1.274 0.285 0.358 0.535 0.621 0.749 0.789z" fill="#0023ff" data-fill-palette-color="accent"></path><path d="M55.018 38.142l-6.015-9.305c-0.332-0.513-0.775-1.101-1.33-1.763v0l1.545-1.318 1.17 1.26c0.212-0.565 0.44-1.087 0.683-1.569 0.246-0.476 0.541-0.943 0.885-1.402 0.344-0.459 0.75-0.841 1.218-1.144v0c0.753-0.487 1.434-0.737 2.042-0.75 0.605-0.019 1.217 0.218 1.836 0.711v0c0.338-0.835 0.724-1.651 1.16-2.446 0.435-0.795 1.012-1.426 1.732-1.891v0c0.558-0.361 1.082-0.596 1.571-0.708 0.484-0.107 0.953-0.074 1.406 0.1 0.453 0.174 0.909 0.5 1.368 0.979 0.456 0.473 0.947 1.116 1.473 1.93v0l4.728 7.314-1.807 1.168-4.598-7.112c-0.292-0.452-0.562-0.851-0.81-1.198-0.238-0.344-0.486-0.611-0.743-0.8-0.248-0.188-0.516-0.284-0.803-0.288-0.297-0.006-0.632 0.112-1.005 0.353v0c-0.346 0.224-0.643 0.487-0.89 0.789-0.246 0.293-0.473 0.638-0.684 1.035-0.219 0.395-0.495 1.095-0.826 2.1v0l5.388 8.334-1.807 1.169-4.598-7.113c-0.292-0.452-0.559-0.853-0.801-1.202-0.244-0.341-0.492-0.608-0.744-0.801-0.254-0.184-0.524-0.278-0.811-0.282-0.291-0.01-0.626 0.108-1.005 0.353v0c-0.391 0.252-0.744 0.599-1.06 1.041-0.31 0.438-0.583 0.891-0.818 1.359-0.226 0.47-0.445 0.988-0.657 1.552v0l5.415 8.377z" fill="#0023ff" data-fill-palette-color="accent"></path><path d="M88.596 14.714v0c0.38 1.698 1.045 2.877 1.995 3.536 0.944 0.66 2.064 0.846 3.361 0.555v0c1.277-0.285 2.18-0.919 2.709-1.902 0.536-0.984 0.62-2.296 0.254-3.936v0c-0.391-1.75-1.062-2.969-2.011-3.655-0.958-0.691-2.091-0.891-3.401-0.598v0c-1.316 0.294-2.223 0.943-2.72 1.945-0.504 1.004-0.566 2.356-0.187 4.055zM86.363 15.182v0c-0.297-1.329-0.333-2.481-0.109-3.457 0.218-0.974 0.591-1.803 1.119-2.486 0.529-0.676 1.142-1.208 1.838-1.595 0.69-0.386 1.369-0.653 2.037-0.803v0c0.629-0.141 1.338-0.194 2.128-0.159 0.79 0.034 1.558 0.241 2.303 0.619 0.745 0.378 1.424 0.951 2.038 1.719 0.609 0.776 1.062 1.828 1.36 3.157v0c0.309 1.381 0.351 2.576 0.127 3.586-0.225 1.003-0.602 1.843-1.132 2.52-0.522 0.682-1.138 1.214-1.848 1.597-0.703 0.388-1.375 0.654-2.017 0.798v0c-0.668 0.149-1.391 0.202-2.17 0.158-0.787-0.049-1.549-0.26-2.285-0.632-0.732-0.381-1.405-0.972-2.02-1.775-0.607-0.797-1.063-1.879-1.369-3.247z" fill="#0023ff" data-fill-palette-color="accent"></path><path d="M119.59 18.258l1.777-18.258 2.242 0.218-0.769 7.894 9.233 0.899 0.769-7.894 2.251 0.219-1.777 18.258-2.251-0.22 0.812-8.35-9.233-0.899-0.812 8.351z" fill="#0023ff" data-fill-palette-color="accent"></path><path d="M156.254 20.088v0c-0.736 1.577-0.929 2.916-0.579 4.019 0.344 1.099 1.119 1.93 2.322 2.492v0c1.186 0.554 2.288 0.603 3.308 0.147 1.025-0.452 1.893-1.44 2.604-2.963v0c0.759-1.625 0.972-2.999 0.638-4.122-0.336-1.132-1.113-1.982-2.329-2.55v0c-1.222-0.571-2.336-0.61-3.342-0.12-1.012 0.488-1.886 1.52-2.622 3.097zM154.199 19.096v0c0.576-1.234 1.251-2.169 2.024-2.805 0.767-0.639 1.569-1.067 2.404-1.286 0.832-0.213 1.642-0.26 2.43-0.141 0.782 0.116 1.483 0.318 2.103 0.608v0c0.584 0.273 1.178 0.664 1.783 1.173 0.605 0.51 1.087 1.142 1.446 1.896 0.359 0.754 0.547 1.623 0.565 2.606 0.009 0.986-0.275 2.097-0.851 3.331v0c-0.599 1.282-1.295 2.255-2.089 2.918-0.791 0.657-1.602 1.092-2.434 1.304-0.829 0.221-1.642 0.267-2.439 0.137-0.794-0.121-1.489-0.321-2.085-0.6v0c-0.62-0.289-1.225-0.689-1.815-1.199-0.593-0.519-1.068-1.151-1.424-1.896-0.347-0.749-0.519-1.628-0.516-2.639 0.006-1.002 0.305-2.137 0.898-3.407z" fill="#0023ff" data-fill-palette-color="accent"></path><path d="M190.832 29.451l1.781 1.237-2.688 2.996 2.9 2.602-1.172 1.305-2.899-2.602-4.792 5.34c-0.399 0.445-0.72 0.822-0.962 1.132-0.242 0.309-0.406 0.582-0.492 0.816-0.091 0.231-0.11 0.436-0.058 0.617 0.057 0.185 0.18 0.362 0.367 0.531v0c0.518 0.438 1.27 0.778 2.257 1.021v0l-0.609 1.649c-0.706-0.098-1.294-0.269-1.764-0.512-0.469-0.243-0.892-0.533-1.267-0.87v0c-0.88-0.79-1.272-1.592-1.175-2.406 0.092-0.819 0.659-1.809 1.702-2.971v0l5.191-5.784-1.839-1.65 1.171-1.306 1.839 1.651z" fill="#0023ff" data-fill-palette-color="accent"></path><path d="M202.627 67.635l-1.308 1.303c-0.327-0.28-0.645-0.582-0.953-0.905-0.308-0.324-0.635-0.69-0.982-1.1-0.343-0.404-0.67-0.85-0.98-1.337v0c-0.481-0.757-0.821-1.528-1.021-2.314-0.206-0.782-0.226-1.564-0.062-2.346 0.165-0.781 0.531-1.549 1.098-2.303 0.573-0.758 1.404-1.482 2.491-2.173v0c0.987-0.627 1.939-1.043 2.856-1.248 0.926-0.203 1.792-0.226 2.6-0.07 0.813 0.152 1.553 0.469 2.22 0.95 0.664 0.475 1.236 1.091 1.718 1.849v0c0.474 0.746 0.738 1.483 0.792 2.212 0.06 0.726-0.045 1.422-0.315 2.088-0.26 0.669-0.665 1.3-1.216 1.895-0.546 0.591-1.183 1.117-1.912 1.58v0l-1.22 0.291-4.654-7.325c-0.465 0.296-0.896 0.652-1.292 1.069-0.393 0.423-0.684 0.899-0.874 1.429-0.187 0.536-0.247 1.117-0.18 1.743 0.067 0.626 0.327 1.295 0.78 2.008v0c0.289 0.454 0.577 0.853 0.866 1.196 0.298 0.346 0.57 0.637 0.816 0.875 0.245 0.238 0.49 0.448 0.732 0.633zM203.277 57.825l3.634 5.719c0.107-0.068 0.328-0.24 0.663-0.516 0.336-0.276 0.647-0.623 0.933-1.041 0.286-0.418 0.472-0.898 0.559-1.442 0.093-0.547-0.042-1.107-0.405-1.679v0c-0.406-0.639-0.874-1.078-1.403-1.316-0.524-0.242-1.044-0.368-1.562-0.377-0.512-0.013-0.987 0.057-1.425 0.209-0.433 0.149-0.764 0.296-0.994 0.443z" fill="#0023ff" data-fill-palette-color="accent"></path><path d="M208.742 87.256l19.176-6.18 0.887 1.975-19.403 6.254z" fill="#0023ff" data-fill-palette-color="accent"></path><path d="M24.257 145.798l-14.878 5.269 1.348 3.804c0.366 1.033 0.841 1.957 1.426 2.772 0.587 0.821 1.296 1.472 2.129 1.952 0.837 0.472 1.804 0.735 2.901 0.791 1.098 0.055 2.332-0.16 3.704-0.646v0c1.277-0.452 2.316-1.021 3.116-1.707 0.807-0.687 1.395-1.463 1.766-2.327 0.373-0.858 0.539-1.801 0.498-2.83-0.036-1.037-0.257-2.129-0.663-3.274v0zM6.372 149.469l19.216-6.807 2.186 6.171c0.539 1.522 0.838 2.963 0.897 4.323 0.061 1.367-0.146 2.631-0.623 3.793-0.476 1.162-1.231 2.194-2.265 3.097-1.031 0.908-2.364 1.651-3.998 2.23v0c-1.653 0.585-3.18 0.83-4.581 0.734-1.395-0.098-2.653-0.456-3.774-1.073-1.115-0.62-2.082-1.472-2.903-2.556-0.814-1.086-1.471-2.333-1.97-3.741v0z" fill="#0023ff" data-fill-palette-color="accent"></path><path d="M32.234 191.416l-1.286 1.599c-0.395-0.271-0.784-0.568-1.169-0.89-0.38-0.317-0.784-0.679-1.21-1.087-0.431-0.413-0.845-0.868-1.243-1.367v0c-0.621-0.779-1.09-1.591-1.406-2.434-0.316-0.844-0.431-1.708-0.345-2.592 0.086-0.884 0.399-1.775 0.939-2.673 0.542-0.908 1.374-1.809 2.496-2.704v0c1.013-0.807 2.018-1.379 3.016-1.716 0.992-0.332 1.945-0.464 2.859-0.393 0.913 0.079 1.765 0.343 2.556 0.791 0.795 0.454 1.503 1.07 2.124 1.85v0c0.609 0.764 0.989 1.544 1.139 2.34 0.151 0.797 0.12 1.578-0.094 2.344-0.215 0.775-0.592 1.521-1.132 2.24-0.53 0.72-1.169 1.378-1.917 1.975v0l-1.308 0.469-6.019-7.549c-0.483 0.385-0.916 0.833-1.3 1.342-0.384 0.51-0.648 1.073-0.793 1.69-0.149 0.612-0.152 1.259-0.007 1.942 0.154 0.684 0.524 1.392 1.108 2.124v0c0.373 0.467 0.74 0.875 1.103 1.224 0.368 0.344 0.699 0.632 0.994 0.864 0.305 0.233 0.603 0.437 0.895 0.611zM31.786 180.496l4.696 5.89c0.109-0.087 0.332-0.303 0.668-0.648 0.337-0.345 0.639-0.765 0.908-1.259 0.268-0.494 0.418-1.047 0.45-1.658 0.036-0.615-0.182-1.219-0.654-1.811v0c-0.522-0.654-1.088-1.082-1.699-1.283-0.606-0.205-1.195-0.284-1.767-0.235-0.573 0.049-1.091 0.182-1.555 0.399-0.464 0.217-0.813 0.419-1.047 0.605z" fill="#0023ff" data-fill-palette-color="accent"></path><path d="M47.461 208.157l6.592-10.403c0.363-0.572 0.749-1.295 1.16-2.167v0l2.054 0.948-0.73 1.767c0.668-0.049 1.301-0.061 1.898-0.036 0.598 0.025 1.208 0.105 1.83 0.239 0.622 0.135 1.194 0.368 1.716 0.698v0c0.842 0.533 1.414 1.1 1.718 1.702 0.3 0.607 0.343 1.338 0.131 2.194v0c0.999-0.051 2-0.042 3.002 0.027 1.008 0.072 1.916 0.365 2.724 0.877v0c0.623 0.395 1.102 0.812 1.436 1.252 0.338 0.434 0.525 0.922 0.56 1.463 0.035 0.541-0.081 1.152-0.348 1.833-0.266 0.681-0.687 1.476-1.263 2.384v0l-5.183 8.181-2.02-1.28 5.039-7.954c0.32-0.505 0.596-0.959 0.828-1.362 0.236-0.409 0.39-0.783 0.464-1.122 0.077-0.345 0.051-0.664-0.078-0.958-0.134-0.297-0.412-0.579-0.832-0.846v0c-0.387-0.245-0.79-0.422-1.21-0.53-0.41-0.11-0.864-0.182-1.362-0.214-0.498-0.033-1.332 0.017-2.501 0.149v0l-5.903 9.318-2.02-1.28 5.039-7.954c0.32-0.505 0.596-0.959 0.828-1.363 0.236-0.409 0.39-0.783 0.463-1.122 0.077-0.345 0.048-0.665-0.086-0.963-0.128-0.294-0.403-0.574-0.824-0.84v0c-0.438-0.277-0.951-0.473-1.539-0.586-0.589-0.113-1.173-0.177-1.754-0.192-0.581-0.014-1.205 0.003-1.873 0.052v0l-5.936 9.368z" fill="#0023ff" data-fill-palette-color="accent"></path><path d="M89.477 219.825v0c-0.399 1.891-0.274 3.391 0.375 4.498 0.657 1.103 1.707 1.806 3.15 2.11v0c1.423 0.3 2.632 0.076 3.624-0.671 0.993-0.748 1.682-2.038 2.069-3.872v0c0.411-1.95 0.292-3.492-0.359-4.627-0.644-1.134-1.697-1.855-3.159-2.163v0c-1.462-0.308-2.68-0.07-3.654 0.716-0.966 0.781-1.648 2.117-2.046 4.009zM86.997 219.271v0c0.312-1.482 0.806-2.664 1.481-3.547 0.676-0.889 1.438-1.554 2.283-1.993 0.848-0.446 1.709-0.702 2.586-0.768 0.884-0.072 1.697-0.029 2.438 0.126v0c0.702 0.148 1.445 0.423 2.229 0.827 0.779 0.395 1.458 0.956 2.038 1.682 0.581 0.72 1.005 1.61 1.27 2.671 0.264 1.067 0.239 2.342-0.073 3.824v0c-0.325 1.54-0.835 2.767-1.53 3.679-0.688 0.914-1.456 1.594-2.303 2.04-0.846 0.439-1.714 0.691-2.603 0.755-0.891 0.07-1.697 0.029-2.418-0.123v0c-0.741-0.156-1.496-0.438-2.266-0.845-0.77-0.407-1.442-0.969-2.017-1.687-0.567-0.724-0.976-1.631-1.228-2.724-0.245-1.09-0.208-2.396 0.113-3.917z" fill="#0023ff" data-fill-palette-color="accent"></path><path d="M121.683 230.093l-2.195-20.268 2.496-0.271 0.95 8.767 10.253-1.11-0.95-8.767 2.497-0.27 2.195 20.268-2.497 0.27-1.004-9.272-10.253 1.11 1.004 9.272z" fill="#0023ff" data-fill-palette-color="accent"></path><path d="M157.157 213.842v0c0.839 1.741 1.854 2.853 3.044 3.333 1.193 0.472 2.454 0.388 3.783-0.252v0c1.311-0.631 2.131-1.546 2.46-2.744 0.33-1.198 0.088-2.641-0.725-4.33v0c-0.865-1.795-1.901-2.944-3.109-3.445-1.202-0.505-2.476-0.433-3.823 0.215v0c-1.346 0.649-2.165 1.582-2.456 2.799-0.288 1.208-0.013 2.683 0.826 4.424zM154.855 214.918v0c-0.657-1.364-0.988-2.602-0.992-3.714-0.007-1.117 0.19-2.108 0.591-2.973 0.399-0.871 0.925-1.6 1.579-2.187 0.656-0.596 1.326-1.059 2.008-1.388v0c0.646-0.311 1.403-0.547 2.27-0.706 0.858-0.163 1.739-0.133 2.641 0.088 0.9 0.215 1.779 0.662 2.637 1.34 0.86 0.684 1.619 1.708 2.276 3.072v0c0.683 1.418 1.028 2.701 1.036 3.848 0.013 1.144-0.18 2.151-0.579 3.022-0.402 0.865-0.935 1.594-1.601 2.187-0.662 0.599-1.326 1.059-1.99 1.379v0c-0.682 0.329-1.452 0.567-2.31 0.715-0.858 0.148-1.734 0.113-2.628-0.105-0.891-0.227-1.769-0.696-2.635-1.407-0.86-0.714-1.627-1.771-2.303-3.171z" fill="#0023ff" data-fill-palette-color="accent"></path><path d="M176.443 187.793l1.565-1.833 3.022 3.312 3.202-2.922 1.31 1.435-3.202 2.922 5.38 5.895c0.443 0.486 0.823 0.882 1.138 1.188 0.32 0.301 0.604 0.514 0.852 0.638 0.248 0.124 0.474 0.165 0.679 0.123 0.209-0.037 0.416-0.15 0.622-0.339v0c0.546-0.525 1.006-1.322 1.379-2.391v0l1.759 0.863c-0.19 0.767-0.445 1.395-0.763 1.884-0.319 0.498-0.685 0.935-1.097 1.311v0c-0.972 0.887-1.904 1.234-2.798 1.043-0.894-0.201-1.925-0.941-3.094-2.222v0l-5.823-6.381-2.032 1.854-1.309-1.436 2.031-1.853z" fill="#0023ff" data-fill-palette-color="accent"></path><path d="M211.338 171.04l1.932 0.691c-0.127 0.462-0.28 0.927-0.458 1.396-0.175 0.463-0.385 0.963-0.63 1.5-0.249 0.542-0.543 1.083-0.883 1.622v0c-0.532 0.842-1.145 1.551-1.84 2.126-0.694 0.575-1.472 0.967-2.335 1.177-0.863 0.209-1.808 0.205-2.833-0.012-1.035-0.214-2.16-0.705-3.373-1.471v0c-1.095-0.692-1.965-1.454-2.609-2.287-0.639-0.829-1.076-1.686-1.31-2.572-0.224-0.888-0.254-1.78-0.09-2.674 0.168-0.9 0.518-1.771 1.051-2.613v0c0.522-0.825 1.134-1.44 1.838-1.844 0.703-0.404 1.452-0.631 2.245-0.679 0.802-0.051 1.632 0.061 2.487 0.335 0.854 0.265 1.686 0.653 2.494 1.164v0l0.873 1.082-5.16 8.161c0.522 0.33 1.087 0.593 1.695 0.788 0.607 0.195 1.226 0.26 1.857 0.195 0.627-0.059 1.239-0.27 1.837-0.63 0.595-0.37 1.143-0.951 1.643-1.743v0c0.319-0.505 0.584-0.986 0.795-1.443 0.204-0.46 0.368-0.868 0.49-1.223 0.12-0.364 0.215-0.713 0.284-1.046zM201.168 175.044l4.025-6.368c-0.118-0.075-0.395-0.214-0.831-0.419-0.436-0.205-0.932-0.353-1.487-0.445-0.555-0.092-1.126-0.052-1.714 0.119-0.593 0.167-1.092 0.571-1.496 1.212v0c-0.447 0.707-0.666 1.383-0.656 2.025 0.004 0.639 0.124 1.222 0.358 1.747 0.234 0.525 0.529 0.971 0.886 1.338 0.357 0.367 0.662 0.631 0.915 0.791z" fill="#0023ff" data-fill-palette-color="accent"></path><path d="M222.162 151.877l-21.268-6.994 0.491-2.356 21.524 7.079z" fill="#0023ff" data-fill-palette-color="accent"></path><path d="M1.287 117.105c0-4.301 3.487-7.788 7.788-7.788 4.301 0 7.788 3.487 7.788 7.788 0 4.301-3.487 7.788-7.788 7.788-4.301 0-7.788-3.487-7.788-7.788z" fill="#0023ff" data-fill-palette-color="accent"></path><path d="M212.214 117.105c0-4.301 3.487-7.788 7.788-7.788 4.301 0 7.788 3.487 7.787 7.788 0 4.301-3.487 7.788-7.787 7.788-4.301 0-7.788-3.487-7.788-7.788z" fill="#0023ff" data-fill-palette-color="accent"></path></g><g id="text-1"></g></svg></g></svg></g></svg></g><defs></defs></svg><rect width="395.52" height="137.2339511213444" fill="none" stroke="none" visibility="hidden"></rect></g></svg></g></svg>